<svg width="319" height="79" viewBox="0 0 319 79" fill="none" xmlns="http://www.w3.org/2000/svg">
<path d="M44.788 47.4439C44.401 47.7648 43.9375 48.1025 43.4094 48.4545C42.9436 48.761 42.4753 49.058 42.0118 49.3381C41.7179 48.1552 41.4049 46.8117 41.08 45.3438C40.7312 43.7729 40.3704 42.0367 40.0096 40.1904C39.6513 38.3513 39.3024 36.402 38.9775 34.3976C38.6502 32.3909 38.3659 30.3075 38.1341 28.2049C37.9048 26.2293 37.6539 24.5267 37.3863 23.1401C37.1139 21.7201 36.66 20.5922 36.0364 19.7852C35.7067 19.3565 35.3149 19.0332 34.8729 18.8249C34.4356 18.619 33.9769 18.5088 33.5063 18.4968C33.0499 18.4825 32.5721 18.5591 32.111 18.7147C31.6499 18.8704 31.2222 19.1003 30.8423 19.3972C29.8842 20.142 29.048 21.2962 28.3552 22.8312C27.6695 24.3519 27.0745 26.1694 26.5848 28.2313C26.095 30.2907 25.6817 32.5968 25.3543 35.0897C25.0366 37.4988 24.7809 40.0323 24.5898 42.6234C23.5839 42.336 22.5733 42.1109 21.5842 41.9601C20.5067 41.7948 19.4387 41.7469 18.4113 41.8164C17.3816 41.8882 16.371 42.087 15.4153 42.4103C14.4501 42.736 13.5326 43.2341 12.6845 43.8926C11.9199 44.4865 11.3059 45.1977 10.8663 46.0095C10.4243 46.8189 10.1495 47.6762 10.0516 48.5527C9.95122 49.4291 10.0181 50.32 10.2523 51.1964C10.484 52.0753 10.8973 52.9038 11.4803 53.6558C12.1756 54.5586 12.9998 55.3057 13.9244 55.8781C14.8467 56.448 15.8597 56.879 16.9396 57.1616C18.0147 57.4442 19.1687 57.6046 20.3705 57.6429C21.4958 57.6789 22.6641 57.631 23.8468 57.5041C23.7679 58.9145 23.6126 60.3729 23.3904 61.8432C23.1539 63.3878 22.7836 64.9085 22.289 66.3644C21.7968 67.8156 21.1302 69.2021 20.3084 70.4881C19.4913 71.7693 18.4543 72.8996 17.2263 73.8526C16.6314 74.3148 15.9696 74.7387 15.2552 75.1123C14.5409 75.4882 13.7859 75.7995 13.0142 76.0414C12.2401 76.2833 11.4469 76.4533 10.6536 76.5419C9.86521 76.6305 9.09111 76.6089 8.35046 76.4748C7.6122 76.3431 6.905 76.0893 6.25275 75.7253C5.60528 75.3637 5.01515 74.8441 4.50626 74.1831C4.07142 73.6204 3.73216 72.9427 3.49324 72.1668C3.25671 71.3933 3.18025 70.5767 3.26388 69.7386C3.3475 68.9004 3.61748 68.0455 4.06187 67.2002C4.50387 66.3572 5.19673 65.567 6.11896 64.851C7.0388 64.1374 7.93474 63.5674 8.78052 63.1603C9.62629 62.7532 10.4267 62.4443 11.1554 62.2455C11.8841 62.0492 12.5602 61.9295 13.1623 61.8959C13.7691 61.8624 14.2995 61.8672 14.7368 61.9103C15.1764 61.9558 15.5252 62.0109 15.7808 62.0755C16.015 62.1354 16.1536 62.1737 16.1918 62.1881L16.3901 62.2815L16.9515 60.7153L16.7747 60.6435C15.5993 60.1574 14.4118 59.8892 13.2483 59.8437C12.0895 59.8006 10.9595 59.9083 9.88671 60.1646C8.81635 60.4208 7.79139 60.8015 6.83572 61.2973C5.88482 61.7906 5.00799 62.3461 4.22911 62.952C3.20892 63.7446 2.34165 64.6307 1.65356 65.5838C0.965475 66.5392 0.480469 67.5498 0.215269 68.5819C-0.0499315 69.6188 -0.0738234 70.6917 0.145982 71.7669C0.365788 72.8421 0.877075 73.9053 1.66551 74.9255C2.6618 76.2162 3.87312 77.1478 5.26363 77.6913C6.52751 78.187 7.86307 78.4361 9.23685 78.4361C9.36348 78.4361 9.4925 78.4361 9.62151 78.4289C11.1243 78.3786 12.6486 78.0577 14.1514 77.4758C15.6494 76.8939 17.0304 76.118 18.2537 75.1697C19.6298 74.1017 20.7814 72.8397 21.6774 71.4172C22.5685 70.002 23.2925 68.479 23.8324 66.8913C24.37 65.306 24.7714 63.6536 25.0246 61.9845C25.2659 60.3777 25.4356 58.7828 25.5264 57.243C26.7329 57.0419 27.9633 56.7737 29.1866 56.448C30.46 56.1079 31.7215 55.72 32.94 55.2914C34.1537 54.8651 35.3435 54.4101 36.4736 53.936C37.5153 53.5001 38.5164 53.0595 39.4529 52.6237L40.3226 56.0936L43.333 54.9681L43.6101 54.9058L43.4405 54.6903C43.4262 54.6568 43.3688 54.4819 43.1514 53.6869C42.977 53.0451 42.7405 52.1519 42.4466 51.0072C43.4787 50.4134 44.2863 49.8961 44.8477 49.4698C45.4283 49.0292 45.7628 48.773 45.8536 48.7035L46.0161 48.5766L44.9553 47.3074L44.8023 47.4343L44.788 47.4439ZM36.2371 50.0086C37.0208 50.502 37.6993 50.945 38.2607 51.3281C37.6228 51.6299 36.8702 51.9603 36.0149 52.3147C35.0138 52.729 33.9268 53.1385 32.7823 53.5336C31.6427 53.9288 30.4194 54.3071 29.146 54.6591C27.9633 54.9848 26.7663 55.2459 25.5909 55.435C25.6506 53.5241 25.727 51.6754 25.8178 49.932C25.9086 48.1959 26.0042 46.5268 26.1045 44.9702C27.2872 45.3749 28.4746 45.8562 29.6382 46.4022C30.8853 46.9889 32.0775 47.5972 33.1837 48.2126C34.2875 48.8281 35.3173 49.4339 36.2371 50.0134V50.0086ZM29.9344 44.69C28.7326 44.1177 27.4903 43.6052 26.2383 43.1646C26.7257 36.8115 27.4401 31.694 28.3647 27.9535C29.2869 24.2154 30.4457 21.7847 31.8075 20.7287C32.2185 20.4102 32.6629 20.221 33.1264 20.1707C33.5588 20.1204 33.9029 20.2689 34.1728 20.6185C34.3401 20.8364 34.481 21.1597 34.5886 21.5812C34.6985 22.017 34.7797 22.6205 34.8299 23.3748C35.0712 28.0229 35.5538 32.6064 36.2682 37.003C36.9562 41.2369 37.7948 45.5162 38.7625 49.7285C38.1341 49.3238 37.4245 48.876 36.6409 48.3827C35.6756 47.7792 34.622 47.1566 33.5063 46.5316C32.3857 45.9041 31.1863 45.2839 29.9392 44.6924L29.9344 44.69ZM24.4441 44.4625C24.3198 46.3208 24.2147 48.2126 24.1311 50.0901C24.0474 51.9675 23.9782 53.8378 23.9208 55.653C22.9532 55.7559 21.9999 55.8038 21.0801 55.7847C20.1124 55.7679 19.1926 55.6553 18.3444 55.4518C17.4963 55.2482 16.7126 54.9465 16.015 54.5514C15.3245 54.1611 14.72 53.6342 14.2183 52.9877C13.7476 52.377 13.4203 51.7185 13.2459 51.0288C13.0715 50.3391 13.0357 49.6351 13.1408 48.9406C13.2459 48.2462 13.4896 47.5661 13.8695 46.9219C14.247 46.2777 14.7678 45.6958 15.4153 45.1929C15.9863 44.7475 16.6266 44.4098 17.3147 44.1895C18.01 43.9668 18.7578 43.8375 19.5367 43.804C20.3227 43.7705 21.1517 43.8184 21.9927 43.9501C22.7907 44.0722 23.615 44.2446 24.4441 44.4625Z" fill="black"/>
<path d="M163.937 14.3396H163.946C164.286 14.3372 164.625 14.2366 164.955 14.0403C165.272 13.8535 165.566 13.6116 165.824 13.3219C166.082 13.0345 166.295 12.704 166.462 12.34C166.629 11.9689 166.715 11.6025 166.713 11.2552C166.711 10.9008 166.57 10.5727 166.293 10.2806C166.013 9.98604 165.671 9.85433 165.28 9.83997C164.883 9.84236 164.525 9.97407 164.221 10.2303C163.937 10.4698 163.688 10.7595 163.488 11.09C163.289 11.4181 163.139 11.7725 163.041 12.1437C162.943 12.5148 162.895 12.8405 162.898 13.1111C162.898 13.4416 162.986 13.7266 163.156 13.9588C163.34 14.2103 163.6 14.3372 163.937 14.3372V14.3396Z" fill="black"/>
<path d="M181.23 23.8538C180.606 24.7758 179.882 25.7241 179.075 26.6724C178.275 27.6159 177.391 28.4804 176.449 29.2419C175.513 29.9986 174.514 30.6188 173.484 31.081C172.464 31.5384 171.408 31.7539 170.338 31.7324C169.802 31.7204 169.317 31.6342 168.895 31.4809C168.484 31.3301 168.13 31.0858 167.843 30.7529C167.552 30.4177 167.327 29.9747 167.172 29.4406C167.017 28.897 166.945 28.2289 166.964 27.4506C166.988 26.4784 167.134 25.499 167.399 24.5387C167.667 23.576 168.02 22.6541 168.457 21.7992C168.892 20.9443 169.413 20.1444 170.003 19.4188C170.591 18.6956 171.229 18.0658 171.9 17.5486C172.567 17.0337 173.267 16.6266 173.981 16.3392C174.688 16.0543 175.396 15.9274 176.084 15.9345C176.917 15.9537 177.524 16.107 177.887 16.3847C178.239 16.653 178.404 17.0002 178.394 17.4504C178.389 17.6659 178.356 17.8719 178.291 18.0658H178.146C177.625 18.0491 177.219 18.1305 176.92 18.3029C176.626 18.4729 176.401 18.6693 176.253 18.892C176.105 19.1123 176.014 19.3278 175.981 19.5314C175.95 19.7277 175.936 19.8331 175.936 19.8451C175.926 20.2546 176.069 20.6042 176.361 20.882C176.647 21.155 176.996 21.2987 177.398 21.3059C177.792 21.3202 178.167 21.1885 178.504 20.9275C178.824 20.6784 179.099 20.3623 179.319 19.9864C179.534 19.62 179.706 19.2081 179.835 18.7603C179.961 18.3125 180.028 17.8862 180.038 17.4887C180.045 17.2301 179.995 16.9164 179.894 16.5596C179.792 16.1932 179.586 15.8388 179.285 15.5059C178.987 15.1754 178.576 14.8881 178.064 14.6486C177.551 14.4091 176.879 14.2798 176.074 14.2606C175.302 14.2391 174.44 14.366 173.544 14.6318C172.655 14.8952 171.757 15.2904 170.88 15.8052C170.003 16.3201 169.148 16.9595 168.34 17.709C167.53 18.4586 166.804 19.3159 166.176 20.257C165.547 21.1981 165.031 22.2422 164.642 23.3581C164.625 23.406 164.613 23.4587 164.596 23.5066L164.582 23.5305C163.997 24.4477 163.411 25.3577 162.826 26.2605C162.248 27.1513 161.648 27.9535 161.048 28.6432C160.451 29.3305 159.842 29.8956 159.235 30.3195C158.652 30.7314 158.045 30.9421 157.434 30.9469C157.125 30.9469 156.901 30.8822 156.748 30.7481C156.602 30.6236 156.526 30.3458 156.523 29.9507C156.519 29.4598 156.626 28.8468 156.836 28.1307C157.051 27.4028 157.338 26.6101 157.689 25.7768C158.04 24.9386 158.439 24.0645 158.877 23.1809C159.309 22.3068 159.746 21.4471 160.176 20.6258C160.602 19.814 161.001 19.0668 161.371 18.3819C161.741 17.6994 162.033 17.1415 162.238 16.72L162.331 16.5308L161.232 16.0591L161.137 16.1716C160.406 17.0433 159.61 18.0131 158.743 19.0764C157.88 20.1396 157.068 21.2651 156.33 22.4194C156.127 22.7379 155.936 23.0564 155.749 23.3797H155.747L155.675 23.5162C155.604 23.6407 155.534 23.7676 155.467 23.8921C155.386 24.0334 155.281 24.2154 155.15 24.4405C154.877 24.9051 154.531 25.4535 154.12 26.0641C153.702 26.6843 153.219 27.3549 152.682 28.0517C152.144 28.7486 151.568 29.4023 150.966 29.9914C150.364 30.5781 149.743 31.0714 149.117 31.4594C148.508 31.8377 147.901 32.0389 147.315 32.0604C146.661 32.0796 146.116 31.8952 145.657 31.4857C145.208 31.0858 144.962 30.3865 144.929 29.4047C144.902 28.5905 145.003 27.6111 145.234 26.4928C145.466 25.3673 145.801 24.1364 146.233 22.8361C146.666 21.531 147.179 20.1396 147.757 18.7052C148.321 17.3067 148.935 15.8771 149.585 14.4546L157.584 14.184L158.162 12.5149L150.381 12.7783C150.99 11.5044 151.614 10.2519 152.237 9.05458C152.909 7.76623 153.577 6.52817 154.223 5.37153L154.321 5.19672L152.916 4.41365L152.811 4.51902C152.201 5.12248 151.578 5.86005 150.954 6.71017C150.335 7.5555 149.755 8.4104 149.229 9.24615C148.711 10.0723 148.25 10.8458 147.86 11.5379C147.518 12.1485 147.268 12.5987 147.11 12.8861L142.891 13.0298L142.312 14.6989L146.247 14.5672C145.43 16.2171 144.747 17.7809 144.214 19.2225C143.648 20.7503 143.196 22.144 142.872 23.3653C142.833 23.5066 142.802 23.6383 142.766 23.7772L142.63 23.6886L142.527 23.8801C141.985 24.8883 141.371 25.9659 140.7 27.0866C140.031 28.205 139.338 29.2634 138.643 30.2333C137.955 31.1936 137.255 32.0078 136.566 32.6567C135.902 33.2817 135.283 33.6218 134.727 33.6673C134.583 33.6793 134.445 33.6409 134.313 33.5523C134.199 33.4757 134.125 33.2769 134.101 32.9776C134.065 32.5274 134.139 32.0054 134.321 31.4306C134.509 30.8391 134.76 30.2069 135.071 29.546C135.386 28.8779 135.721 28.1858 136.079 27.465C136.435 26.749 136.774 26.0066 137.087 25.2595C137.398 24.5124 137.649 23.758 137.833 23.0228C138.019 22.2757 138.084 21.5381 138.026 20.8317C137.955 19.96 137.766 19.244 137.462 18.7076C137.159 18.1712 136.803 17.7497 136.406 17.46C136.007 17.1702 135.587 16.9786 135.152 16.8948C134.729 16.811 134.352 16.7823 134.032 16.8086C133.666 16.8373 133.26 16.9307 132.823 17.0816C132.39 17.2325 131.917 17.4671 131.418 17.7785C130.923 18.0874 130.381 18.4993 129.805 18.9998C129.351 19.3949 128.868 19.8762 128.362 20.4294C128.372 20.1756 128.369 19.9289 128.35 19.6894C128.305 19.1434 128.19 18.6597 128.004 18.2502C127.817 17.8407 127.578 17.4935 127.292 17.2181C127.003 16.9403 126.67 16.7344 126.307 16.6075C125.944 16.4805 125.569 16.4326 125.191 16.4638C124.499 16.5212 123.854 16.8014 123.275 17.2971C122.716 17.7785 122.15 18.4418 121.591 19.268C121.039 20.0869 120.466 21.0688 119.89 22.1895C119.314 23.3054 118.671 24.5363 117.964 25.8797L117.878 26.0402L117.907 26.0593C116.445 29.3161 114.844 31.8042 113.148 33.4494C111.451 35.0945 109.566 36.074 107.543 36.3565C106.955 36.4379 106.412 36.4068 105.93 36.2607C105.447 36.1147 105.022 35.88 104.666 35.5567C104.308 35.231 104.011 34.8311 103.787 34.3641C103.557 33.8924 103.404 33.3751 103.328 32.8267C103.302 32.6423 103.285 32.4556 103.273 32.2688C103.266 32.1347 103.261 32.0006 103.264 31.8665C104.076 31.7252 104.926 31.4929 105.798 31.172C106.725 30.832 107.645 30.4129 108.536 29.9315C109.428 29.4478 110.281 28.8875 111.074 28.2624C111.869 27.635 112.56 26.9478 113.128 26.2222C113.699 25.4918 114.137 24.7111 114.431 23.8993C114.724 23.0779 114.813 22.2206 114.691 21.3513C114.6 20.7048 114.407 20.154 114.115 19.7182C113.824 19.2799 113.473 18.9375 113.069 18.7004C112.67 18.4657 112.23 18.3125 111.762 18.2406C111.298 18.1712 110.847 18.1664 110.417 18.2263C109.762 18.3197 109.024 18.5855 108.228 19.0189C107.44 19.4476 106.637 20.0127 105.844 20.6952C105.053 21.3753 104.281 22.1823 103.545 23.0923C102.81 24.0023 102.174 24.9985 101.653 26.0521C101.307 26.7514 101.022 27.4866 100.793 28.2433L100.631 28.1619L100.557 28.375C100.196 29.4095 99.792 30.4871 99.3548 31.5791C98.92 32.6711 98.4588 33.6864 97.9906 34.5988C97.5223 35.5064 97.0325 36.2799 96.5332 36.9001C96.0577 37.494 95.5846 37.8412 95.1331 37.9322C94.7843 38.0017 94.5286 37.9322 94.3518 37.7167C94.1464 37.4677 94.0126 37.1851 93.9457 36.8522C93.8334 36.2943 93.8262 35.6621 93.9242 34.9748C94.0245 34.2707 94.1798 33.526 94.3877 32.7573C94.5979 31.9838 94.8344 31.1792 95.0901 30.365C95.3481 29.5508 95.5846 28.7414 95.7973 27.9583C96.0099 27.1729 96.17 26.4209 96.2751 25.7193C96.3826 25.0009 96.3779 24.3375 96.2608 23.7508C96.1915 23.406 96.0744 23.066 95.9167 22.7379C95.7519 22.4026 95.5249 22.1057 95.2406 21.8566C94.9491 21.6052 94.5836 21.4232 94.1511 21.3154C93.7211 21.2101 93.2026 21.2172 92.6125 21.337C91.7596 21.5094 90.9066 21.8878 90.0776 22.4649C89.2557 23.0372 88.4481 23.7748 87.674 24.6536C86.8975 25.5325 86.1473 26.555 85.4425 27.6901C85.0244 28.3606 84.623 29.0671 84.2384 29.8022L85.4425 24.6512C86.1712 23.6119 86.9334 22.4792 87.7051 21.2843C88.4816 20.0846 89.2557 18.8225 90.0083 17.539C90.7537 16.2626 91.4609 14.9695 92.1084 13.6979C92.7558 12.4263 93.3149 11.1859 93.7665 10.0101C94.218 8.83666 94.5525 7.72313 94.758 6.70059C94.9658 5.66608 94.9945 4.7537 94.8416 3.99219C94.6887 3.23546 94.3566 2.67989 93.8501 2.34464C93.3436 2.00698 92.7152 1.91359 91.9722 2.06206C91.3319 2.19137 90.7203 2.49071 90.1588 2.95528C89.6093 3.40788 89.0932 3.97303 88.6273 4.63157C88.1662 5.28532 87.7314 6.02529 87.3324 6.8299C86.9358 7.63452 86.5774 8.47267 86.2668 9.32039C85.9538 10.1681 85.6695 11.023 85.4234 11.8564C85.1749 12.6945 84.9623 13.4752 84.7951 14.1768C83.6913 18.6861 82.6281 23.3126 81.6413 27.9296C81.3212 29.4263 80.9891 30.9397 80.6546 32.4556L80.3942 32.3478L80.3368 32.5657C80.3034 32.6902 80.2078 33.0063 80.0477 33.5188C79.8877 34.0313 79.6726 34.6419 79.4074 35.334C79.1422 36.0261 78.8221 36.7876 78.4541 37.5946C78.0886 38.3968 77.6729 39.1607 77.2166 39.8695C76.765 40.576 76.2704 41.1962 75.7448 41.7183C75.2359 42.2235 74.6912 42.5588 74.1249 42.7097C73.4894 42.8797 72.9184 42.8174 72.3808 42.5229C71.8528 42.2331 71.4562 41.6081 71.203 40.6598C70.9927 39.8695 70.8732 38.8925 70.847 37.755C70.8183 36.6056 70.8709 35.3316 70.9975 33.9666C71.1265 32.5992 71.3129 31.1289 71.5566 29.5987C71.7907 28.1116 72.0678 26.579 72.3808 25.044L80.1146 22.975L80.3034 21.2172L72.7822 23.2288C73.088 21.8471 73.4177 20.4869 73.7546 19.1818C74.1202 17.7737 74.4929 16.4135 74.8608 15.1443L74.9158 14.9527L73.37 14.5073L73.2911 14.6342C72.8348 15.355 72.3928 16.2147 71.9747 17.1894C71.5589 18.1616 71.1862 19.1243 70.8661 20.0486C70.5435 20.9826 70.2664 21.8399 70.0466 22.5918C69.8507 23.2647 69.7073 23.7604 69.6189 24.0741L65.5406 25.1661L65.3518 26.9238L69.1578 25.9061C68.7325 27.6997 68.4172 29.3784 68.2212 30.9014C68.0134 32.5202 67.8868 33.981 67.8414 35.2406C67.8366 35.3747 67.8366 35.4992 67.8318 35.6309L67.6431 35.5687L67.5905 35.7746C67.3396 36.7493 67.0434 37.8101 66.7113 38.926C66.3768 40.0444 65.9969 41.1148 65.5812 42.1038C65.1702 43.0832 64.7163 43.9477 64.2289 44.6733C63.763 45.3678 63.2637 45.806 62.7404 45.976C62.5684 46.0383 62.4776 45.9928 62.4251 45.9521C62.3199 45.8731 62.2339 45.7437 62.1742 45.5713C62.0022 45.0852 61.9448 44.3452 62.0022 43.3682C62.0619 42.3696 62.1957 41.1555 62.3988 39.7594C62.6043 38.3513 62.848 36.7612 63.1299 34.9868C63.4094 33.2195 63.6842 31.2965 63.9494 29.2682L63.9757 29.0671L61.6486 28.7917L61.6175 28.9785C61.4646 29.8765 61.2448 30.9613 60.9486 32.2951C60.6595 33.5883 60.313 34.9892 59.9164 36.4547C59.5222 37.9059 59.0706 39.3906 58.5689 40.8657C58.0696 42.3337 57.5225 43.7035 56.9419 44.9343C56.3637 46.1628 55.7377 47.2261 55.0855 48.0905C54.45 48.9359 53.781 49.489 53.0953 49.7309C52.5004 49.9416 52.0512 49.8961 51.7167 49.592C51.3536 49.2616 51.0669 48.797 50.859 48.2103C50.5412 47.3147 50.3955 46.2538 50.4194 45.0613C50.4433 43.8495 50.5627 42.5899 50.7754 41.3135C50.988 40.0324 51.2532 38.7536 51.5614 37.5156C51.8744 36.2655 52.1611 35.1448 52.4215 34.151L52.4717 33.9594L50.914 33.5284L50.8399 33.6721C50.3262 34.6707 49.803 35.8057 49.2821 37.0438C48.7613 38.2867 48.3265 39.5726 47.992 40.8681C47.6599 42.1637 47.4544 43.4688 47.3827 44.7452C47.3111 46.0335 47.4663 47.2237 47.8415 48.2869C48.0828 48.9694 48.3981 49.5609 48.7804 50.0494C49.1675 50.5427 49.6142 50.9259 50.104 51.1845C50.5962 51.4455 51.129 51.6012 51.6857 51.6443C51.7788 51.6515 51.872 51.6539 51.9652 51.6539C52.4359 51.6539 52.9256 51.5653 53.425 51.388C54.125 51.139 54.7749 50.7439 55.3578 50.2146C55.9312 49.6902 56.4784 49.0508 56.9825 48.3132C57.4842 47.5805 57.9597 46.7327 58.3993 45.7988C58.6812 45.1954 58.9607 44.556 59.2331 43.8926C59.2331 44.0794 59.2427 44.2614 59.257 44.4338C59.2952 44.9631 59.3884 45.4372 59.5318 45.8467C59.6584 46.2035 59.8447 46.5244 60.0884 46.7998C60.3297 47.0752 60.6117 47.3003 60.9247 47.4607C61.24 47.6236 61.5912 47.7218 61.9735 47.7505C62.3558 47.7768 62.7596 47.7194 63.1777 47.5709C63.8395 47.3362 64.4511 46.9076 64.9935 46.2993C65.5238 45.7054 66.0041 45.011 66.4174 44.2327C66.8283 43.4616 67.1939 42.633 67.5021 41.7709C67.7243 41.1531 67.913 40.564 68.0851 39.9917C68.1233 40.2024 68.1615 40.3988 68.2069 40.564C68.4004 41.292 68.6752 41.9505 69.0216 42.5205C69.3728 43.0976 69.8005 43.5718 70.2903 43.9333C70.7849 44.2973 71.3463 44.5392 71.9556 44.6518C72.1825 44.6949 72.4191 44.7164 72.6628 44.7164C73.0761 44.7164 73.5109 44.6565 73.9625 44.5344C75.1188 44.2255 76.1342 43.6388 76.98 42.7911C77.6848 42.0822 78.3108 41.2681 78.8555 40.3724C78.7289 40.9112 78.6071 41.4524 78.478 41.9912L78.4303 42.1948L81.1229 42.6809L83.3878 35.073C83.9971 33.7487 84.6756 32.3909 85.4091 31.0331C86.1402 29.6777 86.9191 28.4157 87.7242 27.2854C88.5246 26.1575 89.3704 25.1924 90.2329 24.4142C91.0786 23.6527 91.9411 23.1785 92.7965 23.0061C93.0545 22.9534 93.2576 22.9773 93.3985 23.0755C93.5419 23.1737 93.6422 23.3605 93.6972 23.6287C93.7641 23.9592 93.7235 24.4022 93.5801 24.9482C93.4296 25.5157 93.2265 26.1671 92.9733 26.8831C92.72 27.6039 92.4381 28.375 92.1299 29.1964C91.8217 30.0202 91.5493 30.8751 91.3199 31.7324C91.0906 32.5921 90.9233 33.4589 90.823 34.3139C90.7203 35.1783 90.7489 36.0141 90.909 36.8019C91.0476 37.4868 91.2722 38.0448 91.578 38.4591C91.8862 38.8734 92.2493 39.1847 92.6579 39.3834C93.0617 39.5798 93.4965 39.6852 93.9481 39.6995C94.3829 39.7115 94.8225 39.6756 95.2454 39.5918C95.9048 39.4577 96.5236 39.1296 97.0874 38.6147C97.6346 38.1118 98.1411 37.5036 98.5902 36.8067C99.037 36.1123 99.4432 35.3579 99.7992 34.5653C100.012 34.0911 100.205 33.6266 100.389 33.1692C100.559 34.23 100.898 35.1161 101.414 35.7914C101.954 36.5002 102.597 37.0462 103.323 37.4126C104.047 37.7766 104.824 38.0041 105.629 38.0903C106.002 38.131 106.367 38.1502 106.721 38.1502C107.122 38.1502 107.511 38.1238 107.879 38.0735C108.83 37.9394 109.819 37.6281 110.816 37.142C111.812 36.6583 112.813 35.9542 113.788 35.049C114.76 34.1486 115.716 33.0016 116.631 31.6438C117.546 30.2884 118.416 28.6408 119.216 26.7442L119.281 26.5909L119.273 26.5862C119.462 26.2413 119.692 25.8079 119.962 25.2739C120.253 24.7039 120.564 24.1005 120.896 23.4611C121.228 22.8241 121.584 22.1775 121.949 21.5357C122.317 20.894 122.692 20.3097 123.06 19.7972C123.428 19.2871 123.791 18.8609 124.145 18.5304C124.475 18.2191 124.771 18.0515 125.027 18.0323C125.266 18.0155 125.452 18.0515 125.581 18.1448C125.648 18.1927 125.767 18.3484 125.808 18.8297C125.837 19.1913 125.791 19.6942 125.672 20.3192C125.55 20.949 125.297 21.768 124.919 22.7451C124.656 23.4012 124.365 24.0885 124.054 24.7877C123.739 25.4942 123.404 26.1958 123.06 26.8759C122.707 27.5728 122.346 28.2553 121.988 28.8994C121.624 29.5532 121.264 30.1734 120.915 30.741L118.299 35.0466L120.858 35.8608L120.941 35.7363C121.116 35.4777 121.309 35.1759 121.522 34.8239C121.734 34.4767 121.961 34.1151 122.203 33.7343C122.444 33.3536 122.688 32.9656 122.929 32.5753C123.17 32.1874 123.412 31.8066 123.653 31.433C124.21 30.5661 124.778 29.6681 125.361 28.7342C126.374 27.1393 127.337 25.6881 128.219 24.4166C129.098 23.1522 129.924 22.0722 130.677 21.2029C131.427 20.336 132.123 19.6583 132.744 19.1913C133.346 18.7387 133.891 18.4897 134.359 18.4514C134.775 18.4202 135.102 18.5304 135.35 18.801C135.608 19.0812 135.756 19.4476 135.795 19.8954C135.828 20.2953 135.733 20.7982 135.515 21.3897C135.288 21.9979 134.994 22.678 134.641 23.4108C134.282 24.1508 133.886 24.9314 133.46 25.7336C133.028 26.5526 132.631 27.3716 132.278 28.1714C131.924 28.9737 131.633 29.7639 131.411 30.5206C131.186 31.2893 131.098 32.0078 131.148 32.6519C131.181 33.0614 131.291 33.447 131.473 33.8014C131.654 34.1534 131.891 34.4599 132.177 34.7114C132.467 34.9652 132.808 35.1544 133.193 35.2765C133.578 35.3986 134.003 35.4441 134.459 35.4058C135.24 35.3412 136.01 35.0514 136.741 34.5413C137.455 34.0432 138.15 33.423 138.807 32.6926C139.457 31.9694 140.069 31.172 140.623 30.3267C141.154 29.5149 141.629 28.7366 142.047 28.0038C142.035 28.2361 142.028 28.4516 142.033 28.6288C142.059 29.3808 142.176 30.0848 142.389 30.7194C142.602 31.3612 142.91 31.9191 143.309 32.3813C143.708 32.8459 144.2 33.2075 144.771 33.4565C145.289 33.684 145.887 33.799 146.553 33.799C146.618 33.799 146.685 33.799 146.754 33.7966C147.951 33.7559 149.071 33.4134 150.084 32.7788C151.083 32.1538 152.013 31.366 152.846 30.4368C153.159 30.0872 153.46 29.7232 153.752 29.352C153.752 29.3616 153.752 29.3736 153.752 29.3832C153.759 30.3434 154.041 31.1385 154.588 31.7467C155.135 32.355 155.919 32.6615 156.915 32.6615H156.951C158.007 32.6543 158.991 32.3694 159.88 31.8186C160.752 31.2774 161.562 30.5829 162.286 29.7567C162.919 29.0359 163.495 28.2433 164.023 27.4099C164.045 28.296 164.185 29.0958 164.458 29.7735C164.776 30.5733 165.222 31.2438 165.781 31.7659C166.341 32.2831 167 32.6807 167.743 32.9465C168.481 33.2099 169.27 33.3536 170.087 33.3727C170.151 33.3727 170.216 33.3727 170.283 33.3727C171.248 33.3727 172.249 33.2075 173.26 32.8818C174.337 32.5346 175.417 31.991 176.468 31.2702C177.517 30.5518 178.559 29.6418 179.565 28.5594C180.571 27.4794 181.536 26.2006 182.437 24.759L182.53 24.6081L181.349 23.6694L181.23 23.8466V23.8538ZM108.286 27.8242C107.588 28.4061 106.795 28.933 105.925 29.3856C105.141 29.7951 104.284 30.1279 103.376 30.3746C103.658 29.0742 104.078 27.8194 104.625 26.6364C105.22 25.3577 105.894 24.2058 106.63 23.2192C107.366 22.2326 108.135 21.4256 108.919 20.8197C109.688 20.2211 110.412 19.8714 111.071 19.7804C111.114 19.7732 111.157 19.7708 111.2 19.7708C111.411 19.7708 111.604 19.8475 111.791 20.0007C112.02 20.1923 112.156 20.4701 112.209 20.8509C112.264 21.2508 112.223 21.7297 112.082 22.2733C111.939 22.8289 111.705 23.4299 111.384 24.0574C111.062 24.6872 110.637 25.3313 110.116 25.9755C109.595 26.6197 108.978 27.2423 108.286 27.8242ZM86.4556 20.1229C87.06 17.4025 87.5832 15.0725 88.0229 13.1351C88.515 10.9679 88.9833 9.1791 89.4205 7.81652C89.853 6.46112 90.3093 5.45056 90.7728 4.81117C91.2196 4.19574 91.7763 3.81737 92.4285 3.68567C92.6244 3.64496 92.7917 3.67609 92.9374 3.77906C93.0855 3.88203 93.1787 4.04727 93.2265 4.27955C93.3149 4.72257 93.2432 5.46253 93.0139 6.48507C92.7797 7.52197 92.3592 8.79116 91.7667 10.2519C91.1718 11.7151 90.3786 13.3842 89.4086 15.2113C88.5819 16.7703 87.5904 18.4202 86.4603 20.1277L86.4556 20.1229Z" fill="black"/>
<path d="M318.983 57.2911L318.771 57.3103C317.323 57.4372 315.844 57.6072 314.372 57.818C312.908 58.0263 311.56 58.2298 310.365 58.4214C309.18 58.613 308.194 58.783 307.427 58.9291C306.753 59.0584 306.476 59.1111 306.368 59.1302L306.321 58.9339L306.106 59.0273C302.792 60.4473 299.908 61.1945 297.531 61.252C295.173 61.3046 293.123 60.7443 291.443 59.5757C290.956 59.238 290.581 58.8453 290.323 58.4071C290.067 57.9712 289.914 57.509 289.871 57.0301C289.828 56.5464 289.883 56.0507 290.033 55.555C290.186 55.0545 290.42 54.5683 290.736 54.1134C290.841 53.9601 290.953 53.8116 291.075 53.6655C291.159 53.5626 291.247 53.462 291.338 53.3638C292.031 53.814 292.814 54.2211 293.67 54.5755C294.578 54.9539 295.536 55.2724 296.522 55.5262C297.504 55.7777 298.51 55.9453 299.516 56.0243C300.524 56.1034 301.497 56.0698 302.407 55.9214C303.322 55.7729 304.173 55.4975 304.935 55.1C305.707 54.6977 306.352 54.1277 306.851 53.4069C307.221 52.8705 307.453 52.3341 307.534 51.8144C307.616 51.2948 307.589 50.8039 307.453 50.3561C307.319 49.9131 307.099 49.5012 306.803 49.13C306.512 48.7636 306.182 48.4523 305.826 48.2056C305.284 47.8273 304.562 47.5231 303.681 47.3004C302.808 47.0801 301.836 46.9484 300.792 46.9101C299.753 46.8718 298.637 46.9388 297.481 47.1065C296.324 47.2741 295.182 47.571 294.088 47.9925C293.276 48.3038 292.49 48.6918 291.737 49.1539L291.703 49.0749L291.505 49.197C289.582 50.3872 287.79 51.2924 286.18 51.8863C284.935 52.3437 283.74 52.643 282.617 52.7771C283.2 52.4203 283.764 51.9749 284.304 51.4457C285.105 50.6602 285.819 49.6329 286.426 48.3972C286.839 47.5543 287.166 46.6898 287.403 45.8205C287.637 44.9608 287.833 44.1442 287.988 43.3899C288.144 42.6332 288.273 41.9579 288.378 41.364C288.478 40.7917 288.598 40.3582 288.736 40.0756C288.901 39.7356 289.083 39.4602 289.276 39.2543C289.47 39.0483 289.666 38.8735 289.857 38.7394C290.053 38.6029 290.241 38.4903 290.42 38.4017C290.619 38.3012 290.788 38.203 290.932 38.1024L291.068 38.0066L290.399 36.5243L290.21 36.6249C288.93 37.3146 287.637 38.0569 286.368 38.8304C285.1 39.6063 283.941 40.3247 282.926 40.9713C281.922 41.6082 281.081 42.1566 280.427 42.5997C279.992 42.8942 279.76 43.0522 279.633 43.1385L279.588 43.0522L279.402 43.1959C276.546 45.3991 273.937 46.8431 271.651 47.492C269.379 48.1362 267.255 48.1003 265.339 47.389C264.782 47.1831 264.321 46.8957 263.963 46.5389C263.607 46.1821 263.344 45.7702 263.184 45.3176C263.021 44.8626 262.95 44.3669 262.973 43.8473C262.995 43.3228 263.102 42.796 263.296 42.2764C263.361 42.1016 263.432 41.9291 263.511 41.7591C263.568 41.6394 263.628 41.5196 263.69 41.3999C264.471 41.6609 265.332 41.8597 266.251 41.9914C267.229 42.1303 268.239 42.1973 269.25 42.1973C270.263 42.1973 271.281 42.1063 272.272 41.9315C273.269 41.7567 274.203 41.4813 275.048 41.1101C275.899 40.739 276.652 40.2576 277.292 39.6829C277.939 39.101 278.422 38.3874 278.725 37.5636C278.952 36.9506 279.041 36.3758 278.993 35.8514C278.943 35.3293 278.795 34.86 278.553 34.4577C278.312 34.0626 277.999 33.7177 277.619 33.4327C277.244 33.1526 276.848 32.9323 276.444 32.7814C275.834 32.5539 275.075 32.4389 274.188 32.4389H274.141C273.242 32.4413 272.27 32.5587 271.247 32.7814C270.229 33.0065 269.166 33.3489 268.089 33.7991C267.009 34.2517 265.977 34.8265 265.023 35.5042C264.366 35.9711 263.75 36.5004 263.174 37.0799L263.095 36.9601L262.923 37.1182C260.264 39.5536 257.787 41.2131 255.56 42.0537C253.347 42.887 251.228 43.0307 249.262 42.4847C248.691 42.3267 248.206 42.08 247.819 41.7519C247.434 41.4262 247.138 41.0383 246.94 40.6025C246.739 40.1618 246.627 39.6757 246.605 39.1561C246.584 38.634 246.646 38.0976 246.794 37.5636C246.844 37.384 246.901 37.2044 246.966 37.0296C247.011 36.9051 247.061 36.7805 247.114 36.6584C247.914 36.8524 248.789 36.9793 249.716 37.032C250.703 37.0895 251.713 37.0727 252.721 36.9841C253.73 36.8979 254.736 36.7231 255.71 36.4644C256.688 36.2058 257.595 35.8514 258.405 35.4108C259.22 34.9678 259.932 34.4265 260.522 33.7991C261.117 33.1645 261.54 32.415 261.774 31.5673C261.949 30.9375 261.989 30.358 261.896 29.8383C261.803 29.3211 261.616 28.8661 261.339 28.4877C261.067 28.1141 260.725 27.798 260.324 27.5466C259.927 27.2975 259.514 27.1131 259.096 26.9982C258.46 26.821 257.679 26.7707 256.774 26.8521C255.88 26.9311 254.92 27.1275 253.921 27.4388C252.925 27.7477 251.895 28.1788 250.86 28.72C249.823 29.2612 248.844 29.9197 247.948 30.6788C247.052 31.438 246.242 32.3144 245.547 33.2891C245.224 33.7393 244.947 34.2134 244.703 34.7091C244.591 34.8241 244.484 34.939 244.369 35.0564C243.547 35.8897 242.73 36.6464 241.939 37.305C241.158 37.9563 240.405 38.4784 239.705 38.8567C239.036 39.2183 238.47 39.3524 238.014 39.2614C237.665 39.1896 237.457 39.0244 237.376 38.7586C237.285 38.452 237.271 38.1311 237.337 37.8031C237.452 37.2451 237.691 36.6608 238.047 36.0645C238.41 35.4563 238.845 34.8312 239.335 34.2038C239.829 33.5716 240.36 32.9227 240.912 32.2761C241.471 31.62 242.006 30.9662 242.498 30.3364C242.997 29.697 243.439 29.0672 243.81 28.459C244.187 27.8387 244.441 27.2257 244.56 26.6414C244.629 26.2965 244.656 25.9373 244.636 25.5734C244.615 25.2022 244.522 24.8406 244.355 24.4981C244.185 24.1533 243.92 23.842 243.561 23.5762C243.205 23.3104 242.725 23.1164 242.137 22.9943C241.284 22.8194 240.35 22.8362 239.363 23.0445C238.386 23.2505 237.354 23.6145 236.298 24.1246C235.242 24.6322 234.155 25.2812 233.063 26.0499C232.418 26.5049 231.773 26.9982 231.133 27.525L234.243 23.2505C235.323 22.5752 236.465 21.828 237.636 21.033C238.824 20.226 240.028 19.3663 241.213 18.4803C242.398 17.5918 243.552 16.677 244.639 15.7599C245.733 14.8403 246.729 13.9136 247.599 13.0108C248.471 12.1056 249.212 11.21 249.797 10.3503C250.392 9.47859 250.772 8.65002 250.927 7.88851C251.08 7.13178 250.989 6.49 250.655 5.98233C250.32 5.47465 249.776 5.14179 249.035 4.99092C248.395 4.85922 247.716 4.89992 247.018 5.10587C246.335 5.30702 245.642 5.62791 244.957 6.05417C244.276 6.47803 243.588 6.9881 242.911 7.5748C242.233 8.1615 241.576 8.7937 240.962 9.45225C240.348 10.1108 239.755 10.7861 239.201 11.459C238.642 12.1367 238.145 12.7737 237.722 13.3508C234.951 17.0794 232.174 20.9276 229.475 24.7879C228.545 26.1169 227.599 27.458 226.643 28.8038C225.119 30.6573 223.561 32.2378 222.004 33.5022C220.322 34.8672 218.635 35.9568 216.989 36.7422C215.345 37.5253 213.708 38.0473 212.124 38.2964C210.538 38.5454 209.014 38.5813 207.597 38.4065C206.013 38.2102 204.641 37.7719 203.521 37.1062C202.403 36.4405 201.492 35.5999 200.816 34.6062C200.14 33.61 199.672 32.4677 199.426 31.2081C199.18 29.9437 199.139 28.605 199.309 27.2329C199.454 26.0451 199.791 24.7448 200.312 23.3702C200.833 21.9885 201.514 20.5636 202.336 19.1316C203.16 17.6972 204.128 16.246 205.212 14.8212C206.299 13.3939 207.496 12.0218 208.77 10.7406C210.043 9.45943 211.412 8.26208 212.841 7.18207C214.265 6.10446 215.744 5.1825 217.235 4.44254C218.723 3.70497 220.252 3.15419 221.781 2.80935C223.301 2.46691 224.823 2.38549 226.302 2.56749C227.038 2.65849 227.721 2.85485 228.33 3.14701C228.932 3.43676 229.446 3.83668 229.852 4.33238C230.261 4.83048 230.562 5.44831 230.75 6.16672C230.942 6.89231 230.977 7.73525 230.863 8.67397C230.765 9.46422 230.512 10.3527 230.11 11.3129C229.706 12.2804 229.176 13.2622 228.531 14.2321C227.888 15.2019 227.124 16.1478 226.256 17.0458C225.394 17.9391 224.438 18.7221 223.416 19.3735C222.398 20.0224 221.299 20.5205 220.152 20.8558C219.012 21.1863 217.818 21.2773 216.595 21.1264C215.871 21.0378 215.225 20.8702 214.681 20.6307C214.129 20.3888 213.665 20.135 213.302 19.8716C212.937 19.6082 212.655 19.3711 212.464 19.1699C212.251 18.9472 212.196 18.8754 212.191 18.8754L212.098 18.5928L210.913 19.6129L211.04 19.7638C211.725 20.5876 212.593 21.3228 213.618 21.9478C214.647 22.5776 215.914 22.9895 217.381 23.1691C218.75 23.3391 220.09 23.2553 221.366 22.92C222.637 22.5872 223.839 22.0795 224.94 21.4066C226.039 20.7361 227.064 19.9171 227.984 18.9736C228.901 18.0324 229.716 17.0243 230.404 15.9802C231.092 14.9361 231.656 13.8633 232.079 12.7928C232.504 11.72 232.779 10.6927 232.896 9.742C233.07 8.32195 233.001 7.05994 232.69 5.98951C232.377 4.91908 231.878 3.99712 231.209 3.24998C230.54 2.50523 229.723 1.91374 228.777 1.49227C227.838 1.0732 226.825 0.793019 225.762 0.66131C224.082 0.452971 222.376 0.510444 220.687 0.831334C219.005 1.14983 217.323 1.67427 215.691 2.38789C214.064 3.09911 212.459 3.99712 210.918 5.05558C209.382 6.11404 207.915 7.29702 206.56 8.57339C205.203 9.84976 203.929 11.2291 202.775 12.6707C201.624 14.1099 200.594 15.5899 199.72 17.0674C198.843 18.5473 198.114 20.0416 197.553 21.5095C196.991 22.9823 196.621 24.4119 196.456 25.7601C196.262 27.3358 196.341 28.9379 196.69 30.5208C197.041 32.1085 197.682 33.5836 198.594 34.9055C199.509 36.2298 200.723 37.3696 202.207 38.2964C203.693 39.2255 205.485 39.8242 207.537 40.078C208.132 40.1523 208.751 40.1882 209.386 40.1882C210.273 40.1882 211.195 40.1163 212.148 39.9751C213.785 39.7308 215.505 39.192 217.256 38.3778C218.709 37.7025 220.202 36.7853 221.71 35.6646C221.507 35.9448 221.306 36.2226 221.101 36.5028L220.976 36.6728L223.268 38.1719L228.309 32.0462C229.389 31.0596 230.543 30.073 231.74 29.1127C232.939 28.15 234.146 27.2927 235.328 26.5624C236.504 25.8368 237.658 25.2764 238.754 24.8957C239.829 24.5245 240.809 24.4239 241.662 24.5987C241.92 24.6514 242.097 24.752 242.19 24.898C242.283 25.0441 242.305 25.2549 242.25 25.5231C242.183 25.8535 241.972 26.2463 241.628 26.6941C241.268 27.161 240.826 27.6807 240.317 28.241C239.801 28.8062 239.244 29.4073 238.642 30.0419C238.037 30.6788 237.457 31.3589 236.91 32.0606C236.365 32.7622 235.873 33.4974 235.45 34.2445C235.022 34.9989 234.724 35.7796 234.561 36.5674C234.423 37.2523 234.413 37.8534 234.535 38.3539C234.657 38.8567 234.869 39.2854 235.168 39.6254C235.464 39.9631 235.823 40.2313 236.234 40.4205C236.633 40.6025 237.048 40.739 237.469 40.8276C237.698 40.8731 237.93 40.897 238.167 40.897C238.616 40.897 239.077 40.8132 239.547 40.6456C240.247 40.3965 240.95 40.0349 241.633 39.568C242.312 39.1058 242.981 38.5694 243.619 37.9755C243.671 37.9276 243.717 37.8797 243.767 37.8318C243.712 38.4353 243.736 39.0004 243.862 39.5153C244.075 40.3798 244.448 41.1365 244.971 41.7639C245.489 42.3865 246.111 42.9038 246.815 43.3061C247.515 43.7036 248.213 44.0005 248.887 44.1873C249.673 44.4053 250.533 44.5154 251.45 44.5154C251.615 44.5154 251.78 44.513 251.95 44.5058C253.056 44.4579 254.253 44.2113 255.507 43.7707C256.759 43.33 258.09 42.6595 259.466 41.7831C259.836 41.546 260.214 41.285 260.594 41.0096C260.195 42.0896 260.066 43.0834 260.204 43.967C260.343 44.8459 260.651 45.6313 261.119 46.3019C261.585 46.9652 262.159 47.5351 262.828 47.9925C263.492 48.4475 264.163 48.8019 264.818 49.0462C265.719 49.3814 266.736 49.5754 267.843 49.6209C267.979 49.6257 268.115 49.6305 268.254 49.6305C269.247 49.6305 270.32 49.482 271.45 49.1899C272.251 48.9815 273.094 48.6774 273.966 48.3014C273.667 49.4054 273.761 50.4159 274.255 51.2996C274.762 52.2072 275.581 52.9423 276.69 53.4883C277.918 54.0918 279.22 54.4151 280.563 54.4486C280.682 54.451 280.802 54.4534 280.921 54.4534C282.137 54.4534 283.368 54.2954 284.584 53.984C285.769 53.6799 286.947 53.2561 288.096 52.7292C287.649 53.4931 287.379 54.2451 287.31 54.9731C287.226 55.8615 287.329 56.6996 287.616 57.4611C287.9 58.2203 288.316 58.9147 288.851 59.5278C289.381 60.1336 289.94 60.6461 290.516 61.046C291.307 61.5944 292.243 62.0374 293.304 62.3583C294.358 62.6792 295.562 62.842 296.883 62.842H296.905C297.433 62.842 297.992 62.8013 298.565 62.7415C298.341 63.3018 298.255 63.8837 298.317 64.48C298.427 65.5145 298.888 66.5155 299.693 67.4542C300.582 68.4935 301.652 69.3053 302.873 69.8681C304.084 70.426 305.389 70.8164 306.751 71.0319C307.804 71.1971 308.889 71.2809 309.983 71.2809C310.299 71.2809 310.616 71.2738 310.934 71.2594C312.346 71.1971 313.727 71.0558 315.041 70.8379L315.206 70.8116L315.227 69.3197L314.996 69.3532C312.757 69.6885 310.753 69.8082 309.042 69.7172C307.718 69.6454 306.502 69.449 305.42 69.1281C306.094 69.0299 306.789 68.8431 307.494 68.5701C308.538 68.1654 309.599 67.5069 310.643 66.6089C311.352 65.9982 311.995 65.3325 312.554 64.6285C313.103 63.934 313.608 63.2611 314.05 62.6265C314.492 61.9943 314.876 61.4244 315.206 60.9191C315.524 60.433 315.803 60.0833 316.045 59.8774C316.334 59.6283 316.608 59.4464 316.864 59.3362C317.122 59.2212 317.371 59.1398 317.6 59.0943C317.832 59.0464 318.051 59.0177 318.25 59.0057C318.467 58.9938 318.666 58.9698 318.838 58.9339L319 58.9004L318.969 57.2744L318.983 57.2911ZM306.165 60.8544L306.442 60.6174C306.507 60.603 306.653 60.5766 306.877 60.5383C307.197 60.4832 307.608 60.4162 308.108 60.3348C308.607 60.2534 309.164 60.1672 309.778 60.0714C310.392 59.9756 310.999 59.887 311.598 59.8032C312.198 59.7193 312.757 59.6451 313.271 59.5828C313.531 59.5517 313.765 59.5278 313.973 59.5158C313.897 59.5924 313.808 59.6834 313.71 59.7864C313.414 60.0929 313.068 60.4497 312.669 60.8568C312.27 61.2615 311.847 61.683 311.4 62.1212C310.941 62.5666 310.535 62.9426 310.155 63.2683C309.775 63.5964 309.324 63.9412 308.815 64.2932C308.308 64.6452 307.754 64.9805 307.169 65.287C306.583 65.5935 305.972 65.8498 305.353 66.0533C304.739 66.2545 304.132 66.3718 303.547 66.4029C302.973 66.4341 302.414 66.3622 301.893 66.1874C301.384 66.015 300.926 65.6965 300.536 65.2391C300.245 64.8991 300.054 64.5638 299.972 64.2405C299.886 63.9125 299.858 63.6155 299.889 63.3593C299.918 63.1054 299.982 62.8803 300.078 62.6936C300.111 62.6265 300.14 62.5762 300.166 62.5307C300.541 62.4613 300.923 62.3822 301.31 62.2889C302.792 61.9392 304.424 61.3693 306.153 60.6078L306.165 60.852V60.8544ZM292.432 52.3413C293.519 51.5774 294.68 50.9404 295.882 50.4447C297.184 49.9083 298.46 49.5227 299.669 49.2976C300.876 49.0725 301.989 49.0031 302.973 49.0893C303.943 49.1731 304.713 49.4078 305.26 49.7909C305.475 49.9418 305.599 50.1525 305.637 50.4423C305.675 50.7392 305.587 51.0362 305.367 51.3523C305.138 51.6851 304.784 52.006 304.314 52.3125C303.831 52.6239 303.253 52.904 302.593 53.1459C301.932 53.3902 301.181 53.5745 300.362 53.6943C299.542 53.814 298.67 53.8523 297.765 53.8068C296.862 53.7613 295.923 53.6081 294.974 53.3494C294.121 53.1172 293.268 52.7795 292.432 52.3437V52.3413ZM264.503 40.1427C265.365 39.1321 266.33 38.2245 267.372 37.4439C268.497 36.5985 269.637 35.9065 270.753 35.3868C271.864 34.8696 272.924 34.5223 273.902 34.3595C274.862 34.1991 275.667 34.235 276.291 34.4673C276.537 34.5583 276.709 34.7355 276.816 35.0037C276.926 35.2815 276.917 35.5904 276.783 35.952C276.642 36.3303 276.379 36.7326 275.999 37.1445C275.61 37.566 275.12 37.9827 274.54 38.3826C273.959 38.7849 273.278 39.1513 272.516 39.4698C271.754 39.7907 270.918 40.0445 270.029 40.2265C269.145 40.4085 268.184 40.4947 267.212 40.4803C266.328 40.4684 265.418 40.3558 264.5 40.1403L264.503 40.1427ZM247.821 35.3461C248.598 34.2661 249.482 33.2819 250.454 32.415C251.508 31.4763 252.585 30.6908 253.651 30.0802C254.714 29.4695 255.741 29.0361 256.702 28.7918C257.643 28.55 258.448 28.5188 259.091 28.696C259.344 28.7655 259.531 28.9259 259.662 29.1869C259.796 29.4528 259.81 29.7617 259.707 30.1329C259.6 30.5232 259.371 30.9447 259.027 31.3877C258.673 31.8403 258.219 32.2977 257.677 32.7455C257.129 33.1957 256.482 33.6171 255.751 34.0003C255.017 34.3834 254.205 34.7091 253.338 34.9654C252.473 35.2216 251.536 35.3868 250.552 35.4563C249.67 35.5209 248.753 35.4826 247.821 35.3461ZM236.941 19.4812C238.554 17.2111 239.939 15.269 241.098 13.6549C242.391 11.8541 243.518 10.3886 244.45 9.30138C245.375 8.22377 246.187 7.46944 246.863 7.05994C247.351 6.76539 247.843 6.61932 248.333 6.61932C248.497 6.61932 248.662 6.63608 248.827 6.66961C249.023 6.71032 249.166 6.80371 249.26 6.95218C249.355 7.10544 249.379 7.29223 249.331 7.52691C249.24 7.96993 248.887 8.62368 248.278 9.4738C247.659 10.3383 246.78 11.3417 245.666 12.4576C244.55 13.5735 243.172 14.802 241.566 16.1071C240.197 17.2206 238.644 18.3557 236.941 19.4836V19.4812ZM275.576 47.5591C276.948 46.8383 278.412 45.8588 279.93 44.6615L280.035 44.8794L280.195 44.5465C280.25 44.5058 280.372 44.4244 280.563 44.3023C280.837 44.1251 281.186 43.9 281.614 43.6294C282.042 43.3588 282.517 43.057 283.045 42.7266C283.571 42.3961 284.094 42.0752 284.612 41.7591C285.131 41.443 285.616 41.1556 286.063 40.8946C286.29 40.7629 286.497 40.6504 286.681 40.557C286.641 40.6599 286.595 40.7773 286.545 40.909C286.392 41.3065 286.216 41.7735 286.008 42.3051C285.8 42.8367 285.578 43.3899 285.339 43.967C285.1 44.5417 284.868 45.0638 284.646 45.514C284.424 45.9666 284.146 46.4623 283.819 46.9867C283.492 47.5136 283.114 48.038 282.696 48.5505C282.281 49.0605 281.819 49.5395 281.33 49.9729C280.845 50.3992 280.331 50.7488 279.808 51.0098C279.292 51.2661 278.752 51.4193 278.205 51.4648C277.672 51.5079 277.122 51.3954 276.585 51.132C276.183 50.9332 275.875 50.7009 275.672 50.4375C275.464 50.1693 275.321 49.9083 275.249 49.6616C275.175 49.415 275.146 49.1851 275.161 48.9743C275.18 48.6918 275.216 48.5984 275.228 48.5696L275.335 48.3517L274.456 48.1122C274.824 47.9422 275.197 47.7602 275.574 47.5615L275.576 47.5591Z" fill="black"/>
</svg>
